<svg width="57" height="20" viewBox="0 0 57 20" fill="none" xmlns="http://www.w3.org/2000/svg">
<path d="M36.1251 18.7912C30.1999 18.7912 25.3967 14.7248 25.3967 9.70876C25.3967 4.69268 30.1999 0.626342 36.1251 0.626342C47.4608 0.626342 56.7723 9.70876 56.7723 9.70876C56.7723 9.70876 46.6511 18.7912 36.1251 18.7912Z" fill="#677D0F"/>
<path d="M32.5525 8.14278L32.5525 11.2746L4.74155 13.5068C2.52413 13.6848 0.626421 11.9333 0.626421 9.7087C0.626421 7.48414 2.52413 5.73264 4.74156 5.91061L32.5525 8.14278Z" fill="#677D0F"/>
<mask id="mask0_3_58" style="mask-type:alpha" maskUnits="userSpaceOnUse" x="25" y="0" width="32" height="19">
<path d="M36.1251 18.7912C30.1999 18.7912 25.3967 14.7248 25.3967 9.70876C25.3967 4.69268 30.1999 0.626342 36.1251 0.626342C47.4608 0.626342 56.7723 9.70876 56.7723 9.70876C56.7723 9.70876 46.6511 18.7912 36.1251 18.7912Z" fill="#E7F5BD"/>
</mask>
<g mask="url(#mask0_3_58)">
<path d="M53.5442 9.70243C53.5503 9.7029 53.555 9.708 53.555 9.71412L4.74235 13.5164C2.52283 13.6893 0.626442 11.9349 0.626442 9.70869C0.626442 7.48245 2.52283 5.72804 4.74235 5.90093L53.5442 9.70243Z" fill="#4B3407"/>
</g>
<circle cx="5.30524" cy="9.70874" r="1.92657" transform="rotate(90 5.30524 9.70874)" fill="#4B3407"/>
<path d="M36.529 3.75818L30.2653 8.45598L33.0839 9.39554L36.529 3.75818Z" fill="#4B3407"/>
<path d="M43.4191 15.0329L37.1554 10.3351L39.9741 9.39554L43.4191 15.0329Z" fill="#4B3407"/>
</svg>
