<svg width="91" height="31" viewBox="0 0 91 31" fill="none" xmlns="http://www.w3.org/2000/svg">
<path d="M57.6733 30C48.2138 30 40.5454 23.5081 40.5454 15.5C40.5454 7.49187 48.2138 0.999998 57.6733 0.999999C75.7707 0.999999 90.6364 15.5 90.6364 15.5C90.6364 15.5 74.478 30 57.6733 30Z" fill="#677D0F"/>
<path d="M51.9697 13L51.9697 18L7.56983 21.5636C4.02972 21.8477 1.00004 19.0515 1.00004 15.5C1.00004 11.9485 4.02972 9.15222 7.56982 9.43636L51.9697 13Z" fill="#677D0F"/>
<mask id="mask0_3_160" style="mask-type:alpha" maskUnits="userSpaceOnUse" x="40" y="1" width="51" height="29">
<path d="M57.6734 30C48.214 30 40.5456 23.5081 40.5456 15.5C40.5456 7.49187 48.214 0.999998 57.6734 0.999999C75.7708 0.999999 90.6365 15.5 90.6365 15.5C90.6365 15.5 74.4781 30 57.6734 30Z" fill="#E7F5BD"/>
</mask>
<g mask="url(#mask0_3_160)">
<path d="M85.4827 15.49C85.4925 15.4907 85.5 15.4989 85.5 15.5086L7.57105 21.579C4.0276 21.855 1.00004 19.0541 1.00004 15.5C1.00004 11.9458 4.0276 9.14489 7.57104 9.42091L85.4827 15.49Z" fill="#F5E5BD"/>
</g>
<circle cx="8.46965" cy="15.5" r="3.07576" transform="rotate(90 8.46965 15.5)" fill="#F5E5BD"/>
<path d="M58.3182 6L48.3182 13.5L52.8182 15L58.3182 6Z" fill="#F5E5BD"/>
<path d="M69.3182 24L59.3182 16.5L63.8182 15L69.3182 24Z" fill="#F5E5BD"/>
</svg>
